<?xml version="1.0" encoding="UTF-8"?>
<svg id="Layer_2" data-name="Layer 2" xmlns="http://www.w3.org/2000/svg" xmlns:xlink="http://www.w3.org/1999/xlink" viewBox="0 0 177.6 129.65">
  <defs>
    <style>
      .cls-1 {
        fill: #07281c;
      }

      .cls-2 {
        fill: #fff;
      }

      .cls-3 {
        fill: #a7a9ac;
      }

      .cls-4 {
        fill: #939598;
      }

      .cls-5 {
        fill: #f8b518;
      }

      .cls-6 {
        clip-path: url(#clippath-2);
      }

      .cls-7 {
        fill: #133b2b;
      }

      .cls-8 {
        fill: #0e533a;
      }

      .cls-9 {
        clip-path: url(#clippath-1);
      }

      .cls-10 {
        clip-path: url(#clippath-4);
      }

      .cls-11 {
        fill: #6d6e71;
      }

      .cls-12 {
        clip-path: url(#clippath);
      }

      .cls-13 {
        fill: none;
      }

      .cls-14 {
        clip-path: url(#clippath-3);
      }

      .cls-15 {
        fill: #58595b;
      }
    </style>
    <clipPath id="clippath">
      <rect class="cls-13" x="15.14" width="128" height="128"/>
    </clipPath>
    <clipPath id="clippath-1">
      <rect class="cls-13" x="15.14" y="19.97" width="128" height="61.47"/>
    </clipPath>
    <clipPath id="clippath-2">
      <rect class="cls-13" x="33.07" y="91.25" width="27.92" height="20.58"/>
    </clipPath>
    <clipPath id="clippath-3">
      <rect class="cls-13" x="66.45" y="91.25" width="27.92" height="20.58"/>
    </clipPath>
    <clipPath id="clippath-4">
      <rect class="cls-13" x="100.19" y="91.25" width="27.92" height="20.58"/>
    </clipPath>
  </defs>
  <g id="Layer_1-2" data-name="Layer 1">
    <g class="cls-12">
      <rect class="cls-3" x="15.14" width="128" height="128"/>
      <rect class="cls-8" x="15.14" width="128" height="19.97"/>
      <circle class="cls-5" cx="26.8" cy="9.9" r="6.27"/>
      <rect class="cls-5" x="37.38" y="8.45" width="30.9" height="3.57" rx="1.78" ry="1.78"/>
      <rect class="cls-5" x="115.15" width="15.01" height="19.97"/>
      <rect class="cls-5" x="86.33" y="8.45" width="11.32" height="3.57" rx="1.78" ry="1.78"/>
      <rect class="cls-5" x="101.65" y="8.45" width="11.32" height="3.57" rx="1.78" ry="1.78"/>
      <rect class="cls-5" x="132.7" y="8.45" width="4.84" height="3.57" rx="1.78" ry="1.78"/>
      <rect class="cls-8" x="116.97" y="8.45" width="11.32" height="3.57" rx="1.78" ry="1.78"/>
      <g class="cls-9">
        <rect class="cls-7" x="15.14" y="19.97" width="128" height="61.47"/>
        <path class="cls-1" d="M14.08,53.9c13.7-13.44,32.47-13.49,37.56-13.42,27.78,.35,30.97,19.58,58.52,24.19,32.59,5.45,53.78-17.19,63.71-7.28,6.99,6.97,3.46,25.14-4.61,36.94C137.34,140.96,10.57,123,.68,87.74c-3.21-11.43,5.48-26.08,13.39-33.84Z"/>
        <circle class="cls-1" cx="119.92" cy="42.38" r="12.61"/>
      </g>
      <rect class="cls-2" x="15.14" y="81.44" width="128" height="46.56"/>
      <g class="cls-6">
        <rect class="cls-4" x="33.07" y="91.25" width="27.92" height="20.58"/>
        <path class="cls-11" d="M31.69,104.66c3.5-4.11,9.53-4.91,13.84-4.03,5.3,1.08,5.72,4.23,10.36,4.5,5.59,.33,8.39-4.05,10.4-2.76,2.25,1.45,1.8,8.96-2.04,13.5-8.32,9.84-32.46,5.56-35.19-2.63-1.29-3.87,2.32-8.2,2.63-8.57Z"/>
        <circle class="cls-11" cx="55.21" cy="97.37" r="3.31"/>
      </g>
      <g class="cls-14">
        <rect class="cls-4" x="66.45" y="91.25" width="27.92" height="20.58"/>
        <path class="cls-11" d="M65.06,104.66c3.5-4.11,9.53-4.91,13.84-4.03,5.3,1.08,5.72,4.23,10.36,4.5,5.59,.33,8.39-4.05,10.4-2.76,2.25,1.45,1.8,8.96-2.04,13.5-8.32,9.84-32.46,5.56-35.19-2.63-1.29-3.87,2.32-8.2,2.63-8.57Z"/>
        <circle class="cls-11" cx="88.58" cy="97.37" r="3.31"/>
      </g>
      <g class="cls-10">
        <rect class="cls-4" x="100.19" y="91.25" width="27.92" height="20.58"/>
        <path class="cls-11" d="M98.81,104.66c3.5-4.11,9.53-4.91,13.84-4.03,5.3,1.08,5.72,4.23,10.36,4.5,5.59,.33,8.39-4.05,10.4-2.76,2.25,1.45,1.8,8.96-2.04,13.5-8.32,9.84-32.46,5.56-35.19-2.63-1.29-3.87,2.32-8.2,2.63-8.57Z"/>
        <circle class="cls-11" cx="122.32" cy="97.37" r="3.31"/>
      </g>
      <rect class="cls-15" x="33.07" y="114.81" width="27.92" height="3.54" rx="1.77" ry="1.77"/>
      <rect class="cls-4" x="33.07" y="120.14" width="26.19" height="2.51" rx="1.26" ry="1.26"/>
      <rect class="cls-4" x="33.07" y="123.64" width="24.04" height="2.51" rx="1.26" ry="1.26"/>
      <rect class="cls-4" x="33.07" y="127.14" width="26.55" height="2.51" rx="1.26" ry="1.26"/>
      <rect class="cls-4" x="66.45" y="120.14" width="21.98" height="2.51" rx="1.26" ry="1.26"/>
      <rect class="cls-4" x="66.45" y="123.64" width="25.3" height="2.51" rx="1.26" ry="1.26"/>
      <rect class="cls-4" x="66.45" y="127.14" width="24.14" height="2.51" rx="1.26" ry="1.26"/>
      <rect class="cls-4" x="100.19" y="120.14" width="23.06" height="2.51" rx="1.26" ry="1.26"/>
      <rect class="cls-4" x="100.19" y="123.64" width="25.03" height="2.51" rx="1.26" ry="1.26"/>
      <rect class="cls-4" x="100.19" y="127.14" width="26.55" height="2.51" rx="1.26" ry="1.26"/>
      <rect class="cls-15" x="66.45" y="114.81" width="25.3" height="3.54" rx="1.77" ry="1.77"/>
      <rect class="cls-15" x="100.19" y="114.81" width="23.51" height="3.54" rx="1.77" ry="1.77"/>
    </g>
  </g>
</svg>