<?xml version="1.0" encoding="UTF-8"?>
<svg id="Layer_2" data-name="Layer 2" xmlns="http://www.w3.org/2000/svg" xmlns:xlink="http://www.w3.org/1999/xlink" viewBox="0 0 261.84 128.4">
  <defs>
    <style>
      .cls-1 {
        fill: #fff;
      }

      .cls-2 {
        fill: #f15a29;
      }

      .cls-3 {
        fill: #939598;
      }

      .cls-4 {
        clip-path: url(#clippath-2);
      }

      .cls-5 {
        fill: #009444;
      }

      .cls-6 {
        fill: #d7df23;
      }

      .cls-7 {
        fill: #83d2e1;
      }

      .cls-8 {
        clip-path: url(#clippath-1);
      }

      .cls-9 {
        fill: #6d6e71;
      }

      .cls-10 {
        fill: #fbb040;
      }

      .cls-11 {
        clip-path: url(#clippath);
      }

      .cls-12 {
        fill: #8dc63f;
      }

      .cls-13 {
        fill: none;
      }

      .cls-14 {
        fill: #f7941d;
      }

      .cls-15 {
        fill: #2b3990;
      }

      .cls-16 {
        fill: #ef4136;
      }

      .cls-17 {
        fill: #006838;
      }

      .cls-18 {
        fill: #f9ed32;
      }
    </style>
    <clipPath id="clippath">
      <rect class="cls-13" x="47.02" width="128" height="128"/>
    </clipPath>
    <clipPath id="clippath-1">
      <rect class="cls-13" x="47.02" y="13.72" width="128" height="44.53"/>
    </clipPath>
    <clipPath id="clippath-2">
      <rect class="cls-13" x="115.83" y="73.51" width="44.57" height="32.86"/>
    </clipPath>
  </defs>
  <g id="Layer_1-2" data-name="Layer 1">
    <g class="cls-11">
      <rect class="cls-1" x="47.02" y="0" width="128" height="13.72"/>
      <rect class="cls-1" x="47.02" y="57.38" width="128" height="71.03"/>
      <g class="cls-8">
        <rect class="cls-7" x="37.39" y="11.51" width="147.26" height="32.81"/>
        <path class="cls-18" d="M176.3,32.03c4.09,.48,9.41,17.45,1.92,23.39-2.88,2.28-8.06,3.25-10.35,.96-4.95-4.95,3.8-24.89,8.43-24.34Z"/>
        <path class="cls-17" d="M155.55,30.48c5.28,.49,10.74,21.95,4.22,26.64-3.28,2.36-9.57,.5-12.46-3.07-6.32-7.8,3.46-24.02,8.24-23.58Z"/>
        <path class="cls-2" d="M136.78,32.32c5.28,.49,10.74,21.95,4.22,26.64-3.28,2.36-9.57,.5-12.46-3.07-6.32-7.8,3.46-24.02,8.24-23.58Z"/>
        <path class="cls-18" d="M142.41,33.33c4.09,.48,9.41,17.45,1.92,23.39-2.88,2.28-8.06,3.25-10.35,.96-4.95-4.95,3.8-24.89,8.43-24.34Z"/>
        <path class="cls-14" d="M110.84,27.21c5.28,.49,10.74,21.95,4.22,26.64-3.28,2.36-9.57,.5-12.46-3.07-6.32-7.8,3.46-24.02,8.24-23.58Z"/>
        <path class="cls-6" d="M167.21,32.58c5.18,0,12.84,16.49,7.28,22.23-3.06,3.16-10.15,3.11-13.61-.38-5.18-5.23,.54-15.41,1.15-16.48,1.42-2.52,3.02-5.37,5.18-5.37Z"/>
        <path class="cls-14" d="M127.59,36.28c3.77,.92,7.36,13.77,1.15,18.21-3.5,2.5-9.61,1.98-11.5-.96-3.32-5.16,6.07-18.3,10.35-17.25Z"/>
        <path class="cls-14" d="M178.63,38.34c3.77,.92,7.36,13.77,1.15,18.21-3.5,2.5-9.61,1.98-11.5-.96-3.32-5.16,6.07-18.3,10.35-17.25Z"/>
        <path class="cls-16" d="M116.17,33.89c5.18,0,12.84,16.49,7.28,22.23-3.06,3.16-10.15,3.11-13.61-.38-5.18-5.23,.54-15.41,1.15-16.48,1.42-2.52,3.02-5.37,5.18-5.37Z"/>
        <path class="cls-10" d="M66.01,28.46c-5.3-.05-12.95,20.72-6.94,26.07,3.01,2.68,9.47,1.48,12.71-1.77,7.09-7.1-.97-24.25-5.77-24.3Z"/>
        <path class="cls-18" d="M47.45,31.5c-4.12,.06-11.16,16.39-4.32,23.06,2.63,2.56,7.68,4.07,10.2,2.02,5.43-4.42-1.22-25.15-5.88-25.08Z"/>
        <path class="cls-5" d="M87.13,29.8c-5.3-.05-12.95,20.72-6.94,26.07,3.01,2.68,9.47,1.48,12.71-1.77,7.09-7.1-.97-24.25-5.77-24.3Z"/>
        <path class="cls-18" d="M76.53,31.3c-4.12,.06-11.16,16.39-4.32,23.06,2.63,2.56,7.68,4.07,10.2,2.02,5.43-4.42-1.22-25.15-5.88-25.08Z"/>
        <path class="cls-14" d="M153.23,36.29c3.77,.92,7.36,13.77,1.15,18.21-3.5,2.5-9.61,1.98-11.5-.96-3.32-5.16,6.07-18.3,10.35-17.25Z"/>
        <path class="cls-2" d="M95.19,26.37c-5.3-.05-12.95,20.72-6.94,26.07,3.01,2.68,9.47,1.48,12.71-1.77,7.09-7.1-.97-24.25-5.77-24.3Z"/>
        <path class="cls-14" d="M91,36.06c-3.85,.53-8.74,12.94-3.02,17.99,3.23,2.85,9.36,2.95,11.54,.23,3.83-4.79-4.15-18.83-8.52-18.23Z"/>
        <path class="cls-6" d="M99.76,34.56c-5.15-.53-14.48,15.08-9.54,21.37,2.72,3.46,9.78,4.14,13.58,1.02,5.69-4.67,1.05-15.38,.55-16.52-1.15-2.65-2.45-5.65-4.6-5.87Z"/>
        <path class="cls-12" d="M58.43,35.39c-5.15-.53-14.48,15.08-9.54,21.37,2.72,3.46,9.78,4.14,13.58,1.02,5.69-4.67,1.05-15.38,.55-16.52-1.15-2.65-2.45-5.65-4.6-5.87Z"/>
        <path class="cls-6" d="M44.03,37.48c-3.85,.53-8.74,12.94-3.02,17.99,3.23,2.85,9.36,2.95,11.54,.23,3.83-4.79-4.15-18.83-8.52-18.23Z"/>
        <path class="cls-14" d="M71.33,36.94c-3.85,.53-8.74,12.94-3.02,17.99,3.23,2.85,9.36,2.95,11.54,.23,3.83-4.79-4.15-18.83-8.52-18.23Z"/>
        <path class="cls-1" d="M34.49,53.96c9.36-1.76,25.99-4.8,47.21-5.08,33.94-.45,35.89,6.75,63.39,5.59,22.38-.94,22.93-5.78,51.48-8.21,14.58-1.24,43.4-3.69,57.1,3.51,12.18,6.4,8.9,18.57,1.97,25.95-31.39,33.45-207.56,43.31-245.04,15.43-9.79-7.29-16.38-21.82-3.33-29.82,5.34-3.27,12.64-4.64,27.21-7.38Z"/>
      </g>
      <rect class="cls-15" x="156.87" y="5.35" width="10.88" height="3" rx="1.5" ry="1.5"/>
      <rect class="cls-15" x="118.62" y="5.35" width="10.88" height="3" rx="1.5" ry="1.5"/>
      <rect class="cls-15" x="143.82" y="5.35" width="10.13" height="3" rx="1.5" ry="1.5"/>
      <rect class="cls-15" x="132.18" y="5.35" width="8.73" height="3" rx="1.5" ry="1.5"/>
      <circle class="cls-15" cx="111.02" cy="31.95" r="9.95"/>
      <rect class="cls-15" x="51.59" y="3.21" width="20.09" height="7.3" rx="1.55" ry="1.55"/>
      <rect class="cls-15" x="61.63" y="103.11" width="15.95" height="5.8" rx="1.78" ry="1.78"/>
      <rect class="cls-15" x="61.63" y="70.61" width="37.15" height="5.08" rx="2.54" ry="2.54"/>
      <rect class="cls-15" x="61.63" y="78.9" width="43.52" height="2.09" rx="1.05" ry="1.05"/>
      <rect class="cls-15" x="61.63" y="82.23" width="46.72" height="2.09" rx="1.05" ry="1.05"/>
      <rect class="cls-15" x="61.63" y="97.7" width="36.05" height="2.09" rx="1.05" ry="1.05"/>
      <rect class="cls-15" x="61.63" y="85.56" width="47.81" height="2.09" rx="1.05" ry="1.05"/>
      <rect class="cls-15" x="61.63" y="94.39" width="47.81" height="2.09" rx="1.05" ry="1.05"/>
      <rect class="cls-15" x="61.63" y="88.89" width="23.91" height="2.09" rx="1.05" ry="1.05"/>
      <g class="cls-4">
        <rect class="cls-3" x="115.83" y="73.51" width="44.57" height="32.86"/>
        <path class="cls-9" d="M113.63,94.92c5.59-6.56,15.22-7.83,22.09-6.44,8.46,1.72,9.13,6.75,16.54,7.18,8.92,.52,13.4-6.46,16.6-4.41,3.6,2.31,2.87,14.31-3.25,21.55-13.29,15.72-51.82,8.88-56.18-4.2-2.06-6.17,3.7-13.1,4.2-13.69Z"/>
        <circle class="cls-9" cx="151.17" cy="83.28" r="5.29"/>
      </g>
    </g>
  </g>
</svg>