<?xml version="1.0" encoding="UTF-8"?>
<svg id="Layer_2" data-name="Layer 2" xmlns="http://www.w3.org/2000/svg" xmlns:xlink="http://www.w3.org/1999/xlink" viewBox="0 0 164.29 150.01">
  <defs>
    <style>
      .cls-1 {
        fill: #fff;
      }

      .cls-2 {
        fill: #a7a9ac;
      }

      .cls-3 {
        fill: #939598;
      }

      .cls-4 {
        fill: #00552c;
      }

      .cls-5 {
        clip-path: url(#clippath-2);
      }

      .cls-6 {
        fill: #00aeef;
      }

      .cls-7 {
        fill: #009444;
      }

      .cls-8 {
        clip-path: url(#clippath-1);
      }

      .cls-9 {
        fill: #6d6e71;
      }

      .cls-10 {
        fill: #39b54a;
      }

      .cls-11 {
        clip-path: url(#clippath);
      }

      .cls-12 {
        fill: #8dc63f;
      }

      .cls-13 {
        fill: #c2b59b;
      }

      .cls-14 {
        fill: none;
      }

      .cls-15 {
        fill: #bcbec0;
      }

      .cls-16 {
        fill: #006838;
      }

      .cls-17 {
        fill: #231f20;
      }

      .cls-18 {
        fill: #58595b;
      }
    </style>
    <clipPath id="clippath">
      <rect class="cls-14" x="16.98" y="17.06" width="128" height="128"/>
    </clipPath>
    <clipPath id="clippath-1">
      <rect class="cls-14" x="16.98" y="17.06" width="128" height="79.97"/>
    </clipPath>
    <clipPath id="clippath-2">
      <path class="cls-14" d="M50.09,118.27h57.72c2.93,0,5.32,2.38,5.32,5.32v21.47H44.77v-21.47c0-2.93,2.38-5.32,5.32-5.32Z"/>
    </clipPath>
  </defs>
  <g id="Layer_1-2" data-name="Layer 1">
    <g class="cls-11">
      <g class="cls-8">
        <rect class="cls-6" x="16.98" y="17.06" width="128" height="79.97"/>
        <path class="cls-4" d="M65.68,51.92c10.58,2.97,15.59-9.41,31.32-9.91,16.32-.51,28.34,12.25,30.3,14.33,1.28,1.36,15.99,16.97,11.75,25.54-8.89,18-100.65,3.72-105.99-24.18-1.91-9.99,7.01-23.01,13.84-23.07,7.19-.07,8.08,14.28,18.78,17.28Z"/>
        <path class="cls-16" d="M53.16,61.86c8.84-6.4,21.95-5.84,30.3-.89,4.74,2.81,4.7,5.12,8.28,5.76,8.99,1.63,14.03-12.05,22.47-11.68,8.16,.36,17.9,13.8,15.22,22.32-6.11,19.45-79.59,21.52-86.17,3.99-2.42-6.44,4.23-15.4,9.9-19.51Z"/>
        <path class="cls-7" d="M48.83,73.33c-15.63-4.61-25.4-12.57-35.4-7.27C2.9,71.64-3.03,89.36,1.58,101.06c14.31,36.34,139.93,39.25,157.21,.4,4.86-10.92,2-27.07-7-34.73-19.96-16.97-54.9,20.77-102.97,6.6Z"/>
        <path class="cls-13" d="M156.39,92.1c4.16,7.31,.91,17.52-8.86,23.15-18.56,10.69-45.58-3.81-95.39,4.21-18.25,2.94-25.4,6.62-32.71,3.79-13.77-5.34-13.7-28.28,3.07-40.62,30.59-22.52,121.14-12.93,133.89,9.47Z"/>
        <path class="cls-18" d="M54.39,97.19c-3.98-3.29,.67-7.61,9.96-16.25,5.15-4.79,12.67-11.78,22.34-11.66,.33,0,4.41,.08,6.73,1.34,5.54,3.02-7.96,7.92-6.73,13.22,1.95,8.4,39.28,10.81,37.96,14.23-1.61,4.17-59.71,7.83-70.26-.9Z"/>
        <path class="cls-7" d="M54.22,69.51C72.04,57.05,57.58,2.36,46.74,1.8c-10.83-.56-30.86,52.22-14.37,66.53,5.64,4.89,15.73,5.46,21.85,1.18Z"/>
        <path class="cls-10" d="M11.66,36.81c-9.5,25.1,14.42,53.95,22.86,51.83,11.47-2.88,11.33-67.26-2.78-71.36-6.72-1.95-16.4,9.82-20.08,19.54Z"/>
        <path class="cls-7" d="M129.97,73.19C145.74,64.64,133.58,.41,123.47,0c-9.34-.38-28.3,53.18-9.35,69.38,3.77,3.22,10.84,6.51,15.84,3.8Z"/>
        <path class="cls-10" d="M148.16,69.03c16.6-21.06,2.47-55.73-6.2-56.24-11.79-.7-31.01,60.67-18.8,68.82,5.81,3.88,18.57-4.42,25-12.58Z"/>
        <path class="cls-12" d="M5.65,91.81c4.23,5.99,18.15,6.71,25.19-.16,10.33-10.08,.89-31.7-6.81-32.95-9.04-1.47-25.09,23.6-18.38,33.11Z"/>
        <path class="cls-12" d="M160.62,94.44c10.49-11.9-3.78-39.35-14.1-39.6-10.62-.26-25.97,28.09-16.16,39.76,6.42,7.64,23.29,7.74,30.26-.16Z"/>
        <path class="cls-15" d="M44.8,86.14c-2.08-3.9-7.32-6.19-10.84-4.54-4.85,2.28-5.7,11.7-1.39,14.87,3.74,2.76,11.06,.58,12.85-4.03,1.09-2.8-.23-5.56-.63-6.3Z"/>
        <path class="cls-3" d="M54.13,63.83c-6.61-1.88-15.57,3.81-15.25,8.57,.3,4.43,8.73,9.46,14.87,6.68,4.01-1.81,7.19-7.01,5.67-10.96-1.14-2.98-4.5-4.06-5.29-4.28Z"/>
        <path class="cls-2" d="M33.06,75.43c-1.52,2.41,1.59,8.65,6.55,9.96,4.19,1.1,9.38-1.39,9.7-4.16,.34-2.96-4.96-5.84-8.82-6.68-.86-.19-6.04-1.32-7.44,.88Z"/>
        <path class="cls-3" d="M108.58,64.34c-3.71-.04-7.09,3.7-6.81,6.43,.48,4.51,11.14,7.73,13.74,4.91,1.53-1.66,.36-5.55-1.26-7.81-.52-.73-2.5-3.5-5.67-3.53Z"/>
        <path class="cls-2" d="M128.13,75.62c-2.08-3.9-7.32-6.19-10.84-4.54-4.85,2.28-5.7,11.7-1.39,14.87,3.74,2.76,11.06,.58,12.85-4.03,1.09-2.8-.23-5.56-.63-6.3Z"/>
        <path class="cls-15" d="M133.9,90.5c-2.43,4.64-12.11,4.86-13.74,1.89-1.37-2.5,2.31-8.48,7.18-9.58,.52-.12,3.92-.88,5.92,1.26,1.65,1.76,1.57,4.64,.63,6.43Z"/>
      </g>
      <rect class="cls-1" x="16.98" y="97.03" width="128" height="48.03"/>
      <rect class="cls-17" x="122.81" y="25.33" width="17.81" height="5.78" rx="1.72" ry="1.72"/>
      <rect class="cls-1" x="72.08" y="75.27" width="17.81" height="5.78" rx="1.72" ry="1.72"/>
      <rect class="cls-17" x="60.65" y="104.49" width="36.6" height="6.6" rx="3.3" ry="3.3"/>
      <rect class="cls-17" x="39.7" y="26.71" width="15.91" height="3.02" rx="1.51" ry="1.51" transform="translate(95.32 56.45) rotate(180)"/>
      <rect class="cls-17" x="59.87" y="26.71" width="14.81" height="3.02" rx="1.51" ry="1.51" transform="translate(134.56 56.45) rotate(-180)"/>
      <rect class="cls-17" x="78.95" y="26.71" width="12.77" height="3.02" rx="1.51" ry="1.51" transform="translate(170.66 56.45) rotate(180)"/>
      <circle class="cls-17" cx="28.4" cy="28.22" r="7.2"/>
      <g class="cls-5">
        <path class="cls-3" d="M50.09,118.27h57.72c2.93,0,5.32,2.38,5.32,5.32v21.47H44.77v-21.47c0-2.93,2.38-5.32,5.32-5.32Z"/>
        <polygon class="cls-9" points="85.56 142.38 72.34 134.75 72.34 150.01 85.56 142.38"/>
      </g>
    </g>
  </g>
</svg>