<svg xmlns="http://www.w3.org/2000/svg" viewBox="0 0 136.92 136.92"><defs><style>.cls-1{fill:#fff;}</style></defs><g id="Layer_2" data-name="Layer 2"><g id="Layer_1-2" data-name="Layer 1"><rect width="136.92" height="136.92"/><path class="cls-1" d="M19.12,57.75c1.66,1.87,6.82,5.86,6.9,7.15s.13,2.87,1.34,2.83,4.9,1.37,7.06,1.66,11.07,1,13.56.67-3.41,2.74-5.4,2.74-2.42,1.46-2.75,2.41S35.55,77.58,33.18,78,29.85,79.49,30.77,80s.29,2.45.74,3.7-4,3.49-5.9,3.78-.79,2,.37,1.79,3.91,2.29,5.66,3.49,6.53.34,8.9.92,1,2,1.74,2.49,10.82-5.4,12.07-6,.33,1.16,1.24,1.66,3.54-2.16,6.74-4.16,3,1.5,1.83,3.82-7.53,13.23-6.57,13.8,3.08,2.34,2.16,4-.75,2.25,0,2.33A92.14,92.14,0,0,0,71,110.19c3-.67,6.66-7.36,7.74-3.16s6.65-8,7.73-9.65,1.21-2.66,1.91-3.83,2.83.83,2.75,1.67a2,2,0,0,0,2.16,1.91c1.41,0,2.62,1.16,4.58,3.24s2.2-2.08,2.33-3.91,1.66-1.95,3.16-3.66,1.53-5.24,1.49-6.48,2.67-.21,4.16,0-1.16-4.33-1.91-5.08-2.75-7.19-2.41-9.73,4.7-2.91,6.49-3,2-.34,2.74-1.5-1.33-1.33-2.25-1.41-1.74-1.5-2.66-3.25-18.55-6-19.46-6.57c0,0,0-.2,0-.55a78.78,78.78,0,0,1,8.73-5.74c1-.55,16.88-10,18.39-11.34s4.39-6.18,4.39-8.51-1-1.19-1-.46-2.28,4.62-4.48,7.14S101.8,46.39,99,47.58c-2.24,1-6.93,4.06-9.33,5.46.1-1.44.24-3.14.41-4.19.37-2.13-3.48-8.38-4.87-10.39s-5.58-9-6.16-10.88-1.64.07-2.69,1.5-.38,8.19-3.64,9.28-13.19-11-14.28-11.46-.1,1.58-.94,3-6.15.19-9.19-.13-8.79-2.39-10.88-2.82.26,2.89.81,3.76A15,15,0,0,1,39.58,36c.08,1.74,2.16,3,4.17,4.69a4.24,4.24,0,0,1,1.06,5.68c-1,2-7.67,2.33-10.28,2.44s-5.13,2.44-5.47,3.55,2,.32,3.8.39,2.29,0,2.23,1.11-17,.31-17,.31C13.3,54.09,17.46,55.87,19.12,57.75Z"/></g></g></svg>