<?xml version="1.0" encoding="UTF-8"?>
<svg id="Layer_2" data-name="Layer 2" xmlns="http://www.w3.org/2000/svg" xmlns:xlink="http://www.w3.org/1999/xlink" viewBox="0 0 128 128">
  <defs>
    <style>
      .cls-1 {
        fill: #3c4762;
      }

      .cls-2 {
        clip-path: url(#clippath);
      }

      .cls-3 {
        fill: none;
      }

      .cls-4 {
        fill: #313a50;
      }
    </style>
    <clipPath id="clippath">
      <rect class="cls-3" width="128" height="128"/>
    </clipPath>
  </defs>
  <g id="Layer_1-2" data-name="Layer 1">
    <g class="cls-2">
      <rect class="cls-4" width="128" height="128"/>
      <path class="cls-1" d="M57.28,55.17l-40.07,7.31c-3.34,.61-6.46-1.74-6.46-4.86v-15.34c0-2.36,1.82-4.4,4.35-4.86l40.07-7.31c3.34-.61,6.46,1.74,6.46,4.86v15.34c0,2.36-1.82,4.4-4.35,4.86Z"/>
      <path class="cls-1" d="M70.72,111.89l40.07,7.31c3.34,.61,6.46-1.74,6.46-4.86V41.17c0-2.36-1.82-4.4-4.35-4.86l-40.07-7.31c-3.34-.61-6.46,1.74-6.46,4.86V107.03c0,2.36,1.82,4.4,4.35,4.86Z"/>
      <rect class="cls-1" width="128" height="17.82"/>
      <rect class="cls-4" x="90.61" y="6.19" width="31.37" height="5.44" rx="2.72" ry="2.72"/>
      <rect class="cls-4" x="7.14" y="6.19" width="23.69" height="5.44" rx="2.36" ry="2.36"/>
    </g>
  </g>
</svg>